<svg xmlns="http://www.w3.org/2000/svg" viewBox="0 0 100 100">
<!-- Docist mark: a binder clip holding a packet (logo craft round 2, clip-v3). -->
<defs>

<linearGradient id="g" x1="0" y1="0" x2="1" y2="1"><stop offset="0" stop-color="#ff8a3d"/><stop offset="0.5" stop-color="#ff4d5e"/><stop offset="1" stop-color="#ff5fa8"/></linearGradient>
<linearGradient id="flap" x1="0" y1="0" x2="1" y2="1"><stop offset="0" stop-color="#ffd2b0"/><stop offset="1" stop-color="#ff9f8a"/></linearGradient>
<radialGradient id="glow" cx="0.5" cy="1.0" r="0.75"><stop offset="0" stop-color="#ff4d5e" stop-opacity="0.5"/><stop offset="0.45" stop-color="#ff6a3c" stop-opacity="0.16"/><stop offset="1" stop-color="#ff5a3c" stop-opacity="0"/></radialGradient>
<radialGradient id="indigo" cx="0.15" cy="0.1" r="0.6"><stop offset="0" stop-color="#6366ff" stop-opacity="0.22"/><stop offset="1" stop-color="#5b5bff" stop-opacity="0"/></radialGradient>
<linearGradient id="rim" x1="0" y1="0" x2="0" y2="1"><stop offset="0" stop-color="#ffffff" stop-opacity="0.14"/><stop offset="1" stop-color="#ffffff" stop-opacity="0.02"/></linearGradient>
<linearGradient id="cg" gradientUnits="userSpaceOnUse" x1="30" y1="8" x2="70" y2="44"><stop offset="0" stop-color="#ff8a3d"/><stop offset="0.5" stop-color="#ff4d5e"/><stop offset="1" stop-color="#ff5fa8"/></linearGradient>
<linearGradient id="pg" x1="0" y1="0" x2="0" y2="1"><stop offset="0" stop-color="#f6ebe4"/><stop offset="1" stop-color="#e3d1c8"/></linearGradient>
</defs>

<rect x="0" y="0" width="100" height="100" rx="23" fill="#0b0b0f"/>
<rect x="0" y="0" width="100" height="100" rx="23" fill="url(#indigo)"/>
<rect x="0" y="0" width="100" height="100" rx="23" fill="url(#glow)"/>
<rect x="30" y="28" width="48" height="56" rx="5" fill="#5e4652" transform="rotate(7 54 56)"/>
<rect x="26" y="31" width="48" height="56" rx="5" fill="#a88f97" transform="rotate(3.5 50 59)"/>
<rect x="22" y="34" width="48" height="56" rx="5" fill="url(#pg)"/>
<rect x="29" y="58" width="34" height="5" rx="2.5" fill="#d6c0b8"/>
<rect x="29" y="68" width="34" height="5" rx="2.5" fill="#d6c0b8"/>
<rect x="29" y="78" width="20" height="5" rx="2.5" fill="#d6c0b8"/>
<g fill="none" stroke="url(#cg)" stroke-width="5" stroke-linejoin="round" stroke-linecap="round">
<path d="M37.5 28 L33 13.5 Q32 10 35.5 10 H40.5 Q44 10 43.5 13.5 L43 28"/>
<path d="M54.5 28 L59 13.5 Q60 10 56.5 10 H51.5 Q48 10 48.5 13.5 L49 28"/>
</g>
<path d="M35 26.5 Q35 24.5 37 24.5 H55 Q57 24.5 57 26.5 L61 41 Q61.5 44 58.5 44 H33.5 Q30.5 44 31 41 Z" fill="url(#cg)"/>
<path d="M31.3 40 H60.7 L61 41 Q61.5 44 58.5 44 H33.5 Q30.5 44 31 41 Z" fill="#7a1f3a" opacity="0.6"/>
<rect x="38" y="27.5" width="16" height="2.6" rx="1.3" fill="#ffffff" opacity="0.32"/>
<rect x="0.75" y="0.75" width="98.5" height="98.5" rx="22.3" fill="none" stroke="url(#rim)" stroke-width="1"/>
</svg>
